{"asset":{"version":"2.0","generator":"babylon.js glTF exporter for 3dsmax 2021 v20201109.1"},"scene":0,"scenes":[{"nodes":[0,1,2,3,4,5,6,7,8,9,10,11,12,13,14]}],"nodes":[{"mesh":0,"rotation":[0.7071068,0.0,0.0,0.7071067],"scale":[39.37008,39.37008,39.37008],"name":"Wall"},{"mesh":1,"translation":[0.502179563,15.0937777,-19.7837887],"rotation":[0.7071068,0.0,0.0,0.7071067],"scale":[39.37008,39.37008,39.37008],"name":"Screen LED"},{"mesh":2,"rotation":[0.7071068,0.0,0.0,0.7071067],"scale":[39.37008,39.37008,39.37008],"name":"celling"},{"mesh":3,"rotation":[0.7071068,0.0,0.0,0.7071067],"scale":[39.37008,39.37008,39.37008],"name":"Floor"},{"mesh":4,"rotation":[0.7071068,0.0,0.0,0.7071067],"scale":[39.37008,39.37008,39.37008],"name":"cotcua"},{"mesh":5,"translation":[0.0,0.0,2.41319966],"rotation":[0.7071068,0.0,0.0,0.7071067],"scale":[39.37008,39.37008,39.37008],"name":"Object001"},{"mesh":5,"translation":[0.0,0.0,1.53286219],"rotation":[0.7071068,0.0,0.0,0.7071067],"scale":[39.37008,39.37008,39.37008],"name":"Object002"},{"mesh":6,"rotation":[0.7071068,0.0,0.0,0.7071067],"scale":[39.37008,39.37008,39.37008],"name":"cua2"},{"mesh":7,"rotation":[0.7071068,0.0,0.0,0.7071067],"scale":[39.37008,39.37008,39.37008],"name":"cua0"},{"mesh":8,"translation":[0.0,0.0,68.49765],"rotation":[0.7071068,0.0,0.0,0.7071067],"scale":[39.37008,39.37008,39.37008],"name":"sky"},{"mesh":9,"translation":[0.5557881,12.8406067,-19.9646339],"rotation":[0.7071068,0.0,0.0,0.7071067],"scale":[0.452908,0.5511811,0.444980353],"name":"lcd_screen"},{"mesh":10,"translation":[-10.7239828,12.4806442,-19.75143],"rotation":[0.7071068,0.0,0.0,0.7071067],"scale":[0.4721914,0.4721914,0.477427036],"name":"banner1"},{"mesh":11,"translation":[11.6998672,12.4796448,-19.753231],"rotation":[0.7071068,0.0,0.0,0.7071067],"scale":[0.465593368,0.465593368,0.471015036],"name":"banner2"},{"mesh":12,"translation":[0.397135079,20.1041431,0.0169810485],"rotation":[0.7071068,0.0,0.0,0.7071067],"scale":[39.37008,39.37008,39.37008],"name":"Lamp"},{"name":"Default light"}],"meshes":[{"primitives":[{"attributes":{"POSITION":1,"NORMAL":2,"TEXCOORD_0":3},"indices":0,"material":0},{"attributes":{"POSITION":5,"NORMAL":6,"TEXCOORD_0":7},"indices":4,"material":1},{"attributes":{"POSITION":9,"NORMAL":10,"TEXCOORD_0":11},"indices":8,"material":2},{"attributes":{"POSITION":13,"NORMAL":14,"TEXCOORD_0":15},"indices":12,"material":3},{"attributes":{"POSITION":17,"NORMAL":18,"TEXCOORD_0":19},"indices":16,"material":4},{"attributes":{"POSITION":21,"NORMAL":22,"TEXCOORD_0":23},"indices":20,"material":5},{"attributes":{"POSITION":25,"NORMAL":26,"TEXCOORD_0":27},"indices":24,"material":6}],"name":"Wall"},{"primitives":[{"attributes":{"POSITION":29,"NORMAL":30,"TEXCOORD_0":31},"indices":28,"material":7},{"attributes":{"POSITION":33,"NORMAL":34,"TEXCOORD_0":35},"indices":32,"material":8},{"attributes":{"POSITION":37,"NORMAL":38,"TEXCOORD_0":39},"indices":36,"material":9}],"name":"Screen LED"},{"primitives":[{"attributes":{"POSITION":41,"NORMAL":42},"indices":40,"material":10}],"name":"celling"},{"primitives":[{"attributes":{"POSITION":44,"NORMAL":45,"TEXCOORD_0":46},"indices":43,"material":11}],"name":"Floor"},{"primitives":[{"attributes":{"POSITION":48,"NORMAL":49,"TEXCOORD_0":50},"indices":47,"material":1},{"attributes":{"POSITION":52,"NORMAL":53,"TEXCOORD_0":54},"indices":51,"material":5}],"name":"cotcua"},{"primitives":[{"attributes":{"POSITION":56,"NORMAL":57,"TEXCOORD_0":58},"indices":55,"material":3}],"name":"Object001"},{"primitives":[{"attributes":{"POSITION":60,"NORMAL":61,"TEXCOORD_0":62},"indices":59,"material":3},{"attributes":{"POSITION":64,"NORMAL":65,"TEXCOORD_0":66},"indices":63,"material":4}],"name":"cua2"},{"primitives":[{"attributes":{"POSITION":68,"NORMAL":69,"TEXCOORD_0":70},"indices":67,"material":3},{"attributes":{"POSITION":72,"NORMAL":73,"TEXCOORD_0":74},"indices":71,"material":4}],"name":"cua0"},{"primitives":[{"attributes":{"POSITION":76,"NORMAL":77,"TEXCOORD_0":78},"indices":75,"material":12}],"name":"sky"},{"primitives":[{"attributes":{"POSITION":80,"NORMAL":81,"TEXCOORD_0":82,"TEXCOORD_1":83},"indices":79,"material":13}],"name":"lcd_screen"},{"primitives":[{"attributes":{"POSITION":85,"NORMAL":86,"TEXCOORD_0":87},"indices":84,"material":14}],"name":"banner1"},{"primitives":[{"attributes":{"POSITION":89,"NORMAL":90,"TEXCOORD_0":91},"indices":88,"material":15}],"name":"banner2"},{"primitives":[{"attributes":{"POSITION":93,"NORMAL":94,"TEXCOORD_0":95},"indices":92,"material":16},{"attributes":{"POSITION":97,"NORMAL":98,"TEXCOORD_0":99},"indices":96,"material":17},{"attributes":{"POSITION":101,"NORMAL":102,"TEXCOORD_0":103},"indices":100,"material":18}],"name":"Lamp"}],"accessors":[{"bufferView":0,"componentType":5123,"count":12,"type":"SCALAR","name":"accessorIndices"},{"bufferView":1,"componentType":5126,"count":12,"max":[1.18710709,0.5910834,1.43611848E-13],"min":[-1.18710709,-0.5910834,-0.521208],"type":"VEC3","name":"accessorPositions"},{"bufferView":1,"byteOffset":144,"componentType":5126,"count":12,"type":"VEC3","name":"accessorNormals"},{"bufferView":2,"componentType":5126,"count":12,"type":"VEC2","name":"accessorUVs"},{"bufferView":0,"byteOffset":24,"componentType":5123,"count":2802,"type":"SCALAR","name":"accessorIndices"},{"bufferView":1,"byteOffset":288,"componentType":5126,"count":2802,"max":[1.21250713,0.5910834,1.43611848E-13],"min":[-1.21250713,-0.5910834,-0.521208],"type":"VEC3","name":"accessorPositions"},{"bufferView":1,"byteOffset":33912,"componentType":5126,"count":2802,"type":"VEC3","name":"accessorNormals"},{"bufferView":2,"byteOffset":96,"componentType":5126,"count":2802,"type":"VEC2","name":"accessorUVs"},{"bufferView":0,"byteOffset":5628,"componentType":5123,"count":2190,"type":"SCALAR","name":"accessorIndices"},{"bufferView":1,"byteOffset":67536,"componentType":5126,"count":2190,"max":[1.18710709,0.52324003,4.692142E-13],"min":[-1.18710709,-0.5910834,-0.521208],"type":"VEC3","name":"accessorPositions"},{"bufferView":1,"byteOffset":93816,"componentType":5126,"count":2190,"type":"VEC3","name":"accessorNormals"},{"bufferView":2,"byteOffset":22512,"componentType":5126,"count":2190,"type":"VEC2","name":"accessorUVs"},{"bufferView":0,"byteOffset":10008,"componentType":5123,"count":19389,"type":"SCALAR","name":"accessorIndices"},{"bufferView":1,"byteOffset":120096,"componentType":5126,"count":19389,"max":[1.18585992,0.491708457,0.0],"min":[-1.18585992,-0.491708457,-0.05842],"type":"VEC3","name":"accessorPositions"},{"bufferView":1,"byteOffset":352764,"componentType":5126,"count":19389,"type":"VEC3","name":"accessorNormals"},{"bufferView":2,"byteOffset":40032,"componentType":5126,"count":19389,"type":"VEC2","name":"accessorUVs"},{"bufferView":0,"byteOffset":48788,"componentType":5123,"count":4794,"type":"SCALAR","name":"accessorIndices"},{"bufferView":1,"byteOffset":585432,"componentType":5126,"count":4794,"max":[1.18646193,0.473235,-0.00603839243],"min":[-1.18646193,-0.473235,-0.0523816571],"type":"VEC3","name":"accessorPositions"},{"bufferView":1,"byteOffset":642960,"componentType":5126,"count":4794,"type":"VEC3","name":"accessorNormals"},{"bufferView":2,"byteOffset":195144,"componentType":5126,"count":4794,"type":"VEC2","name":"accessorUVs"},{"bufferView":0,"byteOffset":58376,"componentType":5123,"count":1062,"type":"SCALAR","name":"accessorIndices"},{"bufferView":1,"byteOffset":700488,"componentType":5126,"count":1062,"max":[1.18710709,0.508,1.436027E-13],"min":[-1.18710709,-0.508,-0.0762],"type":"VEC3","name":"accessorPositions"},{"bufferView":1,"byteOffset":713232,"componentType":5126,"count":1062,"type":"VEC3","name":"accessorNormals"},{"bufferView":2,"byteOffset":233496,"componentType":5126,"count":1062,"type":"VEC2","name":"accessorUVs"},{"bufferView":0,"byteOffset":60500,"componentType":5123,"count":234,"type":"SCALAR","name":"accessorIndices"},{"bufferView":1,"byteOffset":725976,"componentType":5126,"count":234,"max":[1.18389654,0.218059,2.93296339E-13],"min":[-1.18389654,-0.5878728,-0.521208],"type":"VEC3","name":"accessorPositions"},{"bufferView":1,"byteOffset":728784,"componentType":5126,"count":234,"type":"VEC3","name":"accessorNormals"},{"bufferView":2,"byteOffset":241992,"componentType":5126,"count":234,"type":"VEC2","name":"accessorUVs"},{"bufferView":0,"byteOffset":60968,"componentType":5123,"count":1824,"type":"SCALAR","name":"accessorIndices"},{"bufferView":1,"byteOffset":731592,"componentType":5126,"count":1824,"max":[0.34792465,0.004363493,0.228455365],"min":[-0.348035336,-0.08857512,-0.171938315],"type":"VEC3","name":"accessorPositions"},{"bufferView":1,"byteOffset":753480,"componentType":5126,"count":1824,"type":"VEC3","name":"accessorNormals"},{"bufferView":2,"byteOffset":243864,"componentType":5126,"count":1824,"type":"VEC2","name":"accessorUVs"},{"bufferView":0,"byteOffset":64616,"componentType":5123,"count":30,"type":"SCALAR","name":"accessorIndices"},{"bufferView":1,"byteOffset":775368,"componentType":5126,"count":30,"max":[0.196159646,0.003728503,0.210040376],"min":[-0.196270362,-0.000505686156,-0.00332038826],"type":"VEC3","name":"accessorPositions"},{"bufferView":1,"byteOffset":775728,"componentType":5126,"count":30,"type":"VEC3","name":"accessorNormals"},{"bufferView":2,"byteOffset":258456,"componentType":5126,"count":30,"type":"VEC2","name":"accessorUVs"},{"bufferView":0,"byteOffset":64676,"componentType":5123,"count":84,"type":"SCALAR","name":"accessorIndices"},{"bufferView":1,"byteOffset":776088,"componentType":5126,"count":84,"max":[0.34744966,0.002458474,0.225280359],"min":[-0.346922845,-0.000505686156,-0.00332038826],"type":"VEC3","name":"accessorPositions"},{"bufferView":1,"byteOffset":777096,"componentType":5126,"count":84,"type":"VEC3","name":"accessorNormals"},{"bufferView":2,"byteOffset":258696,"componentType":5126,"count":84,"type":"VEC2","name":"accessorUVs"},{"bufferView":0,"byteOffset":64844,"componentType":5123,"count":13623,"type":"SCALAR","name":"accessorIndices"},{"bufferView":1,"byteOffset":778104,"componentType":5126,"count":13623,"max":[1.18710709,0.5910834,-0.3048],"min":[-1.18710709,-0.5910834,-0.604319334],"type":"VEC3","name":"accessorPositions"},{"bufferView":1,"byteOffset":941580,"componentType":5126,"count":13623,"type":"VEC3","name":"accessorNormals"},{"bufferView":0,"byteOffset":92092,"componentType":5123,"count":6,"type":"SCALAR","name":"accessorIndices"},{"bufferView":1,"byteOffset":1105056,"componentType":5126,"count":6,"max":[1.21250713,0.5910834,3.22493632E-13],"min":[-1.21250713,-0.6164834,-2.44487441E-17],"type":"VEC3","name":"accessorPositions"},{"bufferView":1,"byteOffset":1105128,"componentType":5126,"count":6,"type":"VEC3","name":"accessorNormals"},{"bufferView":2,"byteOffset":259368,"componentType":5126,"count":6,"type":"VEC2","name":"accessorUVs"},{"bufferView":0,"byteOffset":92104,"componentType":5123,"count":60,"type":"SCALAR","name":"accessorIndices"},{"bufferView":1,"byteOffset":1105200,"componentType":5126,"count":60,"max":[1.18710709,-0.49149,0.0],"min":[1.18468392,-0.492759973,-0.05842],"type":"VEC3","name":"accessorPositions"},{"bufferView":1,"byteOffset":1105920,"componentType":5126,"count":60,"type":"VEC3","name":"accessorNormals"},{"bufferView":2,"byteOffset":259416,"componentType":5126,"count":60,"type":"VEC2","name":"accessorUVs"},{"bufferView":0,"byteOffset":92224,"componentType":5123,"count":432,"type":"SCALAR","name":"accessorIndices"},{"bufferView":1,"byteOffset":1106640,"componentType":5126,"count":432,"max":[1.18710709,0.508,-9.168282E-18],"min":[1.16678715,-0.508,-0.0762],"type":"VEC3","name":"accessorPositions"},{"bufferView":1,"byteOffset":1111824,"componentType":5126,"count":432,"type":"VEC3","name":"accessorNormals"},{"bufferView":2,"byteOffset":259896,"componentType":5126,"count":432,"type":"VEC2","name":"accessorUVs"},{"bufferView":0,"byteOffset":93088,"componentType":5123,"count":36,"type":"SCALAR","name":"accessorIndices"},{"bufferView":1,"byteOffset":1117008,"componentType":5126,"count":36,"max":[1.18569994,0.0218095314,0.0],"min":[1.18468392,-6.602095E-14,-0.05842],"type":"VEC3","name":"accessorPositions"},{"bufferView":1,"byteOffset":1117440,"componentType":5126,"count":36,"type":"VEC3","name":"accessorNormals"},{"bufferView":2,"byteOffset":263352,"componentType":5126,"count":36,"type":"VEC2","name":"accessorUVs"},{"bufferView":0,"byteOffset":93160,"componentType":5123,"count":576,"type":"SCALAR","name":"accessorIndices"},{"bufferView":1,"byteOffset":1117872,"componentType":5126,"count":576,"max":[1.18569994,0.491708457,0.0],"min":[1.18468392,-0.491708457,-0.05842],"type":"VEC3","name":"accessorPositions"},{"bufferView":1,"byteOffset":1124784,"componentType":5126,"count":576,"type":"VEC3","name":"accessorNormals"},{"bufferView":2,"byteOffset":263640,"componentType":5126,"count":576,"type":"VEC2","name":"accessorUVs"},{"bufferView":0,"byteOffset":94312,"componentType":5123,"count":240,"type":"SCALAR","name":"accessorIndices"},{"bufferView":1,"byteOffset":1131696,"componentType":5126,"count":240,"max":[1.18430293,0.473235,-0.00603839243],"min":[1.18392193,-0.473235,-0.0523816571],"type":"VEC3","name":"accessorPositions"},{"bufferView":1,"byteOffset":1134576,"componentType":5126,"count":240,"type":"VEC3","name":"accessorNormals"},{"bufferView":2,"byteOffset":268248,"componentType":5126,"count":240,"type":"VEC2","name":"accessorUVs"},{"bufferView":0,"byteOffset":94792,"componentType":5123,"count":648,"type":"SCALAR","name":"accessorIndices"},{"bufferView":1,"byteOffset":1137456,"componentType":5126,"count":648,"max":[-1.18468392,0.491708457,1.43611848E-13],"min":[-1.18569994,-0.491708457,-0.05842],"type":"VEC3","name":"accessorPositions"},{"bufferView":1,"byteOffset":1145232,"componentType":5126,"count":648,"type":"VEC3","name":"accessorNormals"},{"bufferView":2,"byteOffset":270168,"componentType":5126,"count":648,"type":"VEC2","name":"accessorUVs"},{"bufferView":0,"byteOffset":96088,"componentType":5123,"count":150,"type":"SCALAR","name":"accessorIndices"},{"bufferView":1,"byteOffset":1153008,"componentType":5126,"count":150,"max":[-1.18392193,0.473235,-0.00603839243],"min":[-1.18430293,-0.473235,-0.0523816571],"type":"VEC3","name":"accessorPositions"},{"bufferView":1,"byteOffset":1154808,"componentType":5126,"count":150,"type":"VEC3","name":"accessorNormals"},{"bufferView":2,"byteOffset":275352,"componentType":5126,"count":150,"type":"VEC2","name":"accessorUVs"},{"bufferView":0,"byteOffset":96388,"componentType":5123,"count":6,"type":"SCALAR","name":"accessorIndices"},{"bufferView":1,"byteOffset":1156608,"componentType":5126,"count":6,"max":[1.21250713,-2.33772469,2.90679935E-07],"min":[-1.18710709,-2.33772469,-0.5212077],"type":"VEC3","name":"accessorPositions"},{"bufferView":1,"byteOffset":1156680,"componentType":5126,"count":6,"type":"VEC3","name":"accessorNormals"},{"bufferView":2,"byteOffset":276552,"componentType":5126,"count":6,"type":"VEC2","name":"accessorUVs"},{"bufferView":0,"byteOffset":96400,"componentType":5123,"count":6,"type":"SCALAR","name":"accessorIndices"},{"bufferView":1,"byteOffset":1156752,"componentType":5126,"count":6,"max":[16.4764862,0.316036522,12.9418049],"min":[-16.4804039,0.316036522,-5.59643841],"type":"VEC3","name":"accessorPositions"},{"bufferView":1,"byteOffset":1156824,"componentType":5126,"count":6,"type":"VEC3","name":"accessorNormals"},{"bufferView":2,"byteOffset":276600,"componentType":5126,"count":6,"type":"VEC2","name":"accessorUVs"},{"bufferView":2,"byteOffset":276648,"componentType":5126,"count":6,"type":"VEC2","name":"accessorUV2s"},{"bufferView":0,"byteOffset":96412,"componentType":5123,"count":6,"type":"SCALAR","name":"accessorIndices"},{"bufferView":1,"byteOffset":1156896,"componentType":5126,"count":6,"max":[5.20534563,0.007946801,13.2148132],"min":[-5.20528841,0.007946801,-5.858103],"type":"VEC3","name":"accessorPositions"},{"bufferView":1,"byteOffset":1156968,"componentType":5126,"count":6,"type":"VEC3","name":"accessorNormals"},{"bufferView":2,"byteOffset":276696,"componentType":5126,"count":6,"type":"VEC2","name":"accessorUVs"},{"bufferView":0,"byteOffset":96424,"componentType":5123,"count":6,"type":"SCALAR","name":"accessorIndices"},{"bufferView":1,"byteOffset":1157040,"componentType":5126,"count":6,"max":[5.20534754,0.007946801,13.2148132],"min":[-5.20529175,0.007946801,-5.858103],"type":"VEC3","name":"accessorPositions"},{"bufferView":1,"byteOffset":1157112,"componentType":5126,"count":6,"type":"VEC3","name":"accessorNormals"},{"bufferView":2,"byteOffset":276744,"componentType":5126,"count":6,"type":"VEC2","name":"accessorUVs"},{"bufferView":0,"byteOffset":96436,"componentType":5123,"count":972,"type":"SCALAR","name":"accessorIndices"},{"bufferView":1,"byteOffset":1157184,"componentType":5126,"count":972,"max":[0.8881177,0.3259588,0.07664813],"min":[-0.8881906,-0.326821238,0.06140812],"type":"VEC3","name":"accessorPositions"},{"bufferView":1,"byteOffset":1168848,"componentType":5126,"count":972,"type":"VEC3","name":"accessorNormals"},{"bufferView":2,"byteOffset":276792,"componentType":5126,"count":972,"type":"VEC2","name":"accessorUVs"},{"bufferView":0,"byteOffset":98380,"componentType":5123,"count":10800,"type":"SCALAR","name":"accessorIndices"},{"bufferView":1,"byteOffset":1180512,"componentType":5126,"count":10800,"max":[0.8809575,0.2963805,0.06141321],"min":[-0.88094914,-0.296280265,-0.0779413655],"type":"VEC3","name":"accessorPositions"},{"bufferView":1,"byteOffset":1310112,"componentType":5126,"count":10800,"type":"VEC3","name":"accessorNormals"},{"bufferView":2,"byteOffset":284568,"componentType":5126,"count":10800,"type":"VEC2","name":"accessorUVs"},{"bufferView":0,"byteOffset":119980,"componentType":5123,"count":108,"type":"SCALAR","name":"accessorIndices"},{"bufferView":1,"byteOffset":1439712,"componentType":5126,"count":108,"max":[0.8850697,0.322910756,0.07664813],"min":[-0.8851427,-0.3237732,0.07664813],"type":"VEC3","name":"accessorPositions"},{"bufferView":1,"byteOffset":1441008,"componentType":5126,"count":108,"type":"VEC3","name":"accessorNormals"},{"bufferView":2,"byteOffset":370968,"componentType":5126,"count":108,"type":"VEC2","name":"accessorUVs"}],"bufferViews":[{"buffer":0,"byteLength":120196,"name":"bufferViewScalar"},{"buffer":0,"byteOffset":120196,"byteLength":1442304,"byteStride":12,"name":"bufferViewFloatVec3"},{"buffer":0,"byteOffset":1562500,"byteLength":371832,"byteStride":8,"name":"bufferViewFloatVec2"}],"buffers":[{"uri":"hall2.bin","byteLength":1934332}],"materials":[{"pbrMetallicRoughness":{"baseColorFactor":[0.34902,0.34902,0.337255,1.0],"metallicFactor":0.06,"roughnessFactor":0.92},"name":"_Wall"},{"pbrMetallicRoughness":{"metallicFactor":0.0},"name":"Carpet"},{"pbrMetallicRoughness":{"baseColorTexture":{"index":0},"metallicFactor":0.0},"name":"M_Wall"},{"pbrMetallicRoughness":{"baseColorFactor":[0.643137,0.54902,0.415686,1.0],"metallicFactor":0.0},"name":"M_Wood"},{"pbrMetallicRoughness":{"baseColorFactor":[0.447059,0.447059,0.447059,1.0],"metallicFactor":0.0},"name":"M_Steel"},{"pbrMetallicRoughness":{"baseColorFactor":[0.478431,0.478431,0.478431,1.0],"metallicFactor":0.0},"name":"_Gray"},{"pbrMetallicRoughness":{"baseColorFactor":[0.247059,0.247059,0.247059,1.0],"metallicFactor":0.0},"name":"_C_Black.001"},{"pbrMetallicRoughness":{"baseColorFactor":[0.109804,0.109804,0.117647,1.0],"metallicFactor":0.0},"name":"_M_Iron_Black.001"},{"pbrMetallicRoughness":{"baseColorFactor":[0.247059,0.247059,0.247059,1.0],"metallicFactor":0.0},"name":"_C_Black.002"},{"pbrMetallicRoughness":{"metallicFactor":0.0},"name":"FrontColor.001"},{"pbrMetallicRoughness":{"baseColorFactor":[0.914,0.914,0.92,1.0],"metallicFactor":0.5,"roughnessFactor":0.29},"name":"20 - Polished Aluminum"},{"pbrMetallicRoughness":{"baseColorTexture":{"index":1},"metallicFactor":0.28,"roughnessFactor":0.74},"emissiveFactor":[0.06283186,0.06283185,0.0628318638],"doubleSided":true,"name":"Metal"},{"pbrMetallicRoughness":{"metallicFactor":0.0},"emissiveFactor":[0.09424778,0.09424777,0.0942477956],"name":"24 - Default"},{"pbrMetallicRoughness":{"baseColorTexture":{"index":2},"metallicFactor":0.0},"name":"lcd_mat"},{"pbrMetallicRoughness":{"baseColorTexture":{"index":2},"metallicFactor":0.0},"name":"banner1_mat"},{"pbrMetallicRoughness":{"baseColorTexture":{"index":2},"metallicFactor":0.0},"name":"banner2_mat"},{"pbrMetallicRoughness":{"baseColorFactor":[0.643137,0.54902,0.415686,1.0],"metallicFactor":0.0},"name":"M_Wood"},{"pbrMetallicRoughness":{"baseColorFactor":[0.005602878,0.005602878,0.005602878,1.0],"metallicFactor":0.0},"name":"C_Gray"},{"pbrMetallicRoughness":{"baseColorFactor":[1.0,1.0,0.513725,1.0],"metallicFactor":0.0},"name":"Light Emission"}],"textures":[{"sampler":0,"source":0,"name":"M_Wall.jpg"},{"sampler":0,"source":1,"name":"Fabric028_2K_Color.jpg"},{"sampler":0,"source":2,"name":"noimageavailable.jpg"}],"images":[{"uri":"M_Wall.jpg"},{"uri":"Fabric028_2K_Color.jpg"},{"uri":"noimageavailable.jpg"}],"samplers":[{"magFilter":9729,"minFilter":9987}]}