<svg id="Capa_1" enable-background="new 0 0 512 512" height="512" viewBox="0 0 512 512" width="512" xmlns="http://www.w3.org/2000/svg"><g><g><path fill="#f26524" d="m330.752 125.108h76.772c4.143 0 7.5-3.358 7.5-7.5s-3.357-7.5-7.5-7.5h-76.772c-4.143 0-7.5 3.358-7.5 7.5s3.357 7.5 7.5 7.5z"/><path fill="#f26524" d="m330.752 157.433h46.468c4.143 0 7.5-3.358 7.5-7.5s-3.357-7.5-7.5-7.5h-46.468c-4.143 0-7.5 3.358-7.5 7.5s3.357 7.5 7.5 7.5z"/><path fill="#f26524" d="m330.752 189.758h76.772c4.143 0 7.5-3.358 7.5-7.5s-3.357-7.5-7.5-7.5h-76.772c-4.143 0-7.5 3.358-7.5 7.5s3.357 7.5 7.5 7.5z"/><path fill="#f26524" d="m330.752 222.083h46.468c4.143 0 7.5-3.358 7.5-7.5s-3.357-7.5-7.5-7.5h-46.468c-4.143 0-7.5 3.358-7.5 7.5s3.357 7.5 7.5 7.5z"/><path fill="#f26524" d="m407.524 239.409h-76.772c-4.143 0-7.5 3.358-7.5 7.5s3.357 7.5 7.5 7.5h76.772c4.143 0 7.5-3.358 7.5-7.5s-3.357-7.5-7.5-7.5z"/><path fill="#f26524" d="m484.3 13.13h-456.6c-15.274 0-27.7 12.431-27.7 27.71v323.25c0 15.274 12.426 27.7 27.7 27.7h159.109l-8.074 59.75h-35.875c-8.591 0-15.58 6.989-15.58 15.58v16.17c0 8.591 6.989 15.58 15.58 15.58h19.67c4.143 0 7.5-3.358 7.5-7.5s-3.357-7.5-7.5-7.5h-19.67c-.32 0-.58-.26-.58-.58v-16.17c0-.32.26-.58.58-.58h226.28c.32 0 .58.26.58.58v16.17c0 .32-.26.58-.58.58h-171.61c-4.143 0-7.5 3.358-7.5 7.5s3.357 7.5 7.5 7.5h171.61c8.591 0 15.58-6.989 15.58-15.58v-16.17c0-8.591-6.989-15.58-15.58-15.58h-35.874l-8.074-59.75h79.658c4.143 0 7.5-3.358 7.5-7.5s-3.357-7.5-7.5-7.5h-377.15c-7.003 0-12.7-5.697-12.7-12.7v-323.25c0-7.008 5.697-12.71 12.7-12.71h456.6c7.003 0 12.7 5.702 12.7 12.71v323.25c0 7.003-5.697 12.7-12.7 12.7h-44.45c-4.143 0-7.5 3.358-7.5 7.5s3.357 7.5 7.5 7.5h44.45c15.274 0 27.7-12.426 27.7-27.7v-323.25c0-15.279-12.426-27.71-27.7-27.71zm-166.171 438.41h-124.258l8.074-59.75h108.109z"/><path fill="#f26524" d="m72 45.46h-32.17c-4.143 0-7.5 3.358-7.5 7.5v299.01c0 4.142 3.357 7.5 7.5 7.5h432.34c4.143 0 7.5-3.358 7.5-7.5v-299.01c0-4.142-3.357-7.5-7.5-7.5h-365.17c-4.143 0-7.5 3.358-7.5 7.5s3.357 7.5 7.5 7.5h357.67v284.01h-417.34v-284.01h24.67c4.143 0 7.5-3.358 7.5-7.5s-3.357-7.5-7.5-7.5z"/><path fill="#f26524" d="m64.65 85.283v234.357c0 4.142 3.357 7.5 7.5 7.5h367.7c4.143 0 7.5-3.358 7.5-7.5v-234.357c0-4.142-3.357-7.5-7.5-7.5h-367.7c-4.142 0-7.5 3.358-7.5 7.5zm120.639 125.841c-22.601 0-40.988-18.387-40.988-40.988s18.388-40.988 40.988-40.988 40.987 18.387 40.987 40.988-18.386 40.988-40.987 40.988zm30.305 15c22.601 0 40.987 18.387 40.987 40.988v45.028h-19.211v-24.825c0-4.142-3.357-7.5-7.5-7.5s-7.5 3.358-7.5 7.5v24.825h-74.163v-24.825c0-4.142-3.357-7.5-7.5-7.5s-7.5 3.358-7.5 7.5v24.825h-19.211v-45.028c0-22.601 18.387-40.988 40.987-40.988zm90.333 68.691h94.098v17.325h-94.098zm109.097 17.325v-17.325h17.325v17.325zm17.326-32.325h-126.423v-187.032h126.423zm-352.7-187.032h211.276v219.357h-19.346v-45.028c0-28.409-21.274-51.927-48.724-55.501 11.306-10.251 18.419-25.047 18.419-41.475 0-30.872-25.116-55.988-55.987-55.988-30.872 0-55.988 25.116-55.988 55.988 0 16.427 7.113 31.224 18.419 41.475-27.45 3.574-48.724 27.092-48.724 55.501v45.028h-19.345z"/></g></g></svg>