{"asset":{"version":"2.0","generator":"babylon.js glTF exporter for 3dsmax 2021 v20201109.1"},"scene":0,"scenes":[{"nodes":[0,1,2,3,4,5,6,7,8,9]}],"nodes":[{"mesh":0,"translation":[0.0,0.00101544184,0.349999249],"rotation":[0.7071068,0.0,0.0,0.7071067],"scale":[27.5590553,27.5590553,27.5590553],"name":"Wall"},{"mesh":1,"translation":[0.0,0.00101544184,0.349999249],"rotation":[0.7071068,0.0,0.0,0.7071067],"scale":[27.5590553,27.5590553,27.5590553],"name":"celling"},{"mesh":2,"translation":[0.0,0.00101544184,0.349999249],"rotation":[0.7071068,0.0,0.0,0.7071067],"scale":[27.5590553,27.5590553,27.5590553],"name":"Floor"},{"mesh":3,"translation":[0.0,0.00101544184,0.349999249],"rotation":[0.7071068,0.0,0.0,0.7071067],"scale":[27.5590553,27.5590553,27.5590553],"name":"cotcua"},{"mesh":4,"translation":[0.0,0.00101544184,2.03923917],"rotation":[0.7071068,0.0,0.0,0.7071067],"scale":[27.5590553,27.5590553,27.5590553],"name":"Object001"},{"mesh":4,"translation":[0.0,0.00101544184,1.42300272],"rotation":[0.7071068,0.0,0.0,0.7071067],"scale":[27.5590553,27.5590553,27.5590553],"name":"Object002"},{"mesh":5,"translation":[0.0,0.00101544184,0.349999249],"rotation":[0.7071068,0.0,0.0,0.7071067],"scale":[27.5590553,27.5590553,27.5590553],"name":"cua2"},{"mesh":6,"translation":[0.0,0.00101544184,0.349999249],"rotation":[0.7071068,0.0,0.0,0.7071067],"scale":[27.5590553,27.5590553,27.5590553],"name":"cua0"},{"mesh":7,"translation":[0.0,0.00101544184,48.2983551],"rotation":[0.7071068,0.0,0.0,0.7071067],"scale":[27.5590553,27.5590553,27.5590553],"name":"background"},{"name":"Default light"}],"meshes":[{"primitives":[{"attributes":{"POSITION":1,"NORMAL":2,"TEXCOORD_0":3},"indices":0,"material":0},{"attributes":{"POSITION":5,"NORMAL":6,"TEXCOORD_0":7},"indices":4,"material":1},{"attributes":{"POSITION":9,"NORMAL":10,"TEXCOORD_0":11},"indices":8,"material":2},{"attributes":{"POSITION":13,"NORMAL":14,"TEXCOORD_0":15},"indices":12,"material":3},{"attributes":{"POSITION":17,"NORMAL":18,"TEXCOORD_0":19},"indices":16,"material":4},{"attributes":{"POSITION":21,"NORMAL":22,"TEXCOORD_0":23},"indices":20,"material":5},{"attributes":{"POSITION":25,"NORMAL":26,"TEXCOORD_0":27},"indices":24,"material":6}],"name":"Wall"},{"primitives":[{"attributes":{"POSITION":29,"NORMAL":30},"indices":28,"material":7}],"name":"celling"},{"primitives":[{"attributes":{"POSITION":32,"NORMAL":33,"TEXCOORD_0":34},"indices":31,"material":8}],"name":"Floor"},{"primitives":[{"attributes":{"POSITION":36,"NORMAL":37,"TEXCOORD_0":38},"indices":35,"material":1},{"attributes":{"POSITION":40,"NORMAL":41,"TEXCOORD_0":42},"indices":39,"material":5}],"name":"cotcua"},{"primitives":[{"attributes":{"POSITION":44,"NORMAL":45,"TEXCOORD_0":46},"indices":43,"material":3}],"name":"Object001"},{"primitives":[{"attributes":{"POSITION":48,"NORMAL":49,"TEXCOORD_0":50},"indices":47,"material":3},{"attributes":{"POSITION":52,"NORMAL":53,"TEXCOORD_0":54},"indices":51,"material":4}],"name":"cua2"},{"primitives":[{"attributes":{"POSITION":56,"NORMAL":57,"TEXCOORD_0":58},"indices":55,"material":3},{"attributes":{"POSITION":60,"NORMAL":61,"TEXCOORD_0":62},"indices":59,"material":4}],"name":"cua0"},{"primitives":[{"attributes":{"POSITION":64,"NORMAL":65,"TEXCOORD_0":66},"indices":63,"material":9}],"name":"background"}],"accessors":[{"bufferView":0,"componentType":5123,"count":12,"type":"SCALAR","name":"accessorIndices"},{"bufferView":1,"componentType":5126,"count":12,"max":[1.18710709,0.5910834,1.43611848E-13],"min":[-1.18710709,-0.5910834,-0.521208],"type":"VEC3","name":"accessorPositions"},{"bufferView":1,"byteOffset":144,"componentType":5126,"count":12,"type":"VEC3","name":"accessorNormals"},{"bufferView":2,"componentType":5126,"count":12,"type":"VEC2","name":"accessorUVs"},{"bufferView":0,"byteOffset":24,"componentType":5123,"count":2802,"type":"SCALAR","name":"accessorIndices"},{"bufferView":1,"byteOffset":288,"componentType":5126,"count":2802,"max":[1.21250713,0.5910834,1.43611848E-13],"min":[-1.21250713,-0.5910834,-0.521208],"type":"VEC3","name":"accessorPositions"},{"bufferView":1,"byteOffset":33912,"componentType":5126,"count":2802,"type":"VEC3","name":"accessorNormals"},{"bufferView":2,"byteOffset":96,"componentType":5126,"count":2802,"type":"VEC2","name":"accessorUVs"},{"bufferView":0,"byteOffset":5628,"componentType":5123,"count":2190,"type":"SCALAR","name":"accessorIndices"},{"bufferView":1,"byteOffset":67536,"componentType":5126,"count":2190,"max":[1.18710709,0.52324003,4.692142E-13],"min":[-1.18710709,-0.5910834,-0.521208],"type":"VEC3","name":"accessorPositions"},{"bufferView":1,"byteOffset":93816,"componentType":5126,"count":2190,"type":"VEC3","name":"accessorNormals"},{"bufferView":2,"byteOffset":22512,"componentType":5126,"count":2190,"type":"VEC2","name":"accessorUVs"},{"bufferView":0,"byteOffset":10008,"componentType":5123,"count":19389,"type":"SCALAR","name":"accessorIndices"},{"bufferView":1,"byteOffset":120096,"componentType":5126,"count":19389,"max":[1.18585992,0.491708457,0.0],"min":[-1.18585992,-0.491708457,-0.05842],"type":"VEC3","name":"accessorPositions"},{"bufferView":1,"byteOffset":352764,"componentType":5126,"count":19389,"type":"VEC3","name":"accessorNormals"},{"bufferView":2,"byteOffset":40032,"componentType":5126,"count":19389,"type":"VEC2","name":"accessorUVs"},{"bufferView":0,"byteOffset":48788,"componentType":5123,"count":4794,"type":"SCALAR","name":"accessorIndices"},{"bufferView":1,"byteOffset":585432,"componentType":5126,"count":4794,"max":[1.18646193,0.473235,-0.00603839243],"min":[-1.18646193,-0.473235,-0.0523816571],"type":"VEC3","name":"accessorPositions"},{"bufferView":1,"byteOffset":642960,"componentType":5126,"count":4794,"type":"VEC3","name":"accessorNormals"},{"bufferView":2,"byteOffset":195144,"componentType":5126,"count":4794,"type":"VEC2","name":"accessorUVs"},{"bufferView":0,"byteOffset":58376,"componentType":5123,"count":1062,"type":"SCALAR","name":"accessorIndices"},{"bufferView":1,"byteOffset":700488,"componentType":5126,"count":1062,"max":[1.18710709,0.508,1.436027E-13],"min":[-1.18710709,-0.508,-0.0762],"type":"VEC3","name":"accessorPositions"},{"bufferView":1,"byteOffset":713232,"componentType":5126,"count":1062,"type":"VEC3","name":"accessorNormals"},{"bufferView":2,"byteOffset":233496,"componentType":5126,"count":1062,"type":"VEC2","name":"accessorUVs"},{"bufferView":0,"byteOffset":60500,"componentType":5123,"count":234,"type":"SCALAR","name":"accessorIndices"},{"bufferView":1,"byteOffset":725976,"componentType":5126,"count":234,"max":[1.18389654,0.218059,2.93296339E-13],"min":[-1.18389654,-0.5878728,-0.521208],"type":"VEC3","name":"accessorPositions"},{"bufferView":1,"byteOffset":728784,"componentType":5126,"count":234,"type":"VEC3","name":"accessorNormals"},{"bufferView":2,"byteOffset":241992,"componentType":5126,"count":234,"type":"VEC2","name":"accessorUVs"},{"bufferView":0,"byteOffset":60968,"componentType":5123,"count":13623,"type":"SCALAR","name":"accessorIndices"},{"bufferView":1,"byteOffset":731592,"componentType":5126,"count":13623,"max":[1.18710709,0.5910834,-0.3048],"min":[-1.18710709,-0.5910834,-0.604319334],"type":"VEC3","name":"accessorPositions"},{"bufferView":1,"byteOffset":895068,"componentType":5126,"count":13623,"type":"VEC3","name":"accessorNormals"},{"bufferView":0,"byteOffset":88216,"componentType":5123,"count":6,"type":"SCALAR","name":"accessorIndices"},{"bufferView":1,"byteOffset":1058544,"componentType":5126,"count":6,"max":[1.21250713,0.5910834,3.22493632E-13],"min":[-1.21250713,-0.6164834,-2.44487441E-17],"type":"VEC3","name":"accessorPositions"},{"bufferView":1,"byteOffset":1058616,"componentType":5126,"count":6,"type":"VEC3","name":"accessorNormals"},{"bufferView":2,"byteOffset":243864,"componentType":5126,"count":6,"type":"VEC2","name":"accessorUVs"},{"bufferView":0,"byteOffset":88228,"componentType":5123,"count":60,"type":"SCALAR","name":"accessorIndices"},{"bufferView":1,"byteOffset":1058688,"componentType":5126,"count":60,"max":[1.18710709,-0.49149,0.0],"min":[1.18468392,-0.492759973,-0.05842],"type":"VEC3","name":"accessorPositions"},{"bufferView":1,"byteOffset":1059408,"componentType":5126,"count":60,"type":"VEC3","name":"accessorNormals"},{"bufferView":2,"byteOffset":243912,"componentType":5126,"count":60,"type":"VEC2","name":"accessorUVs"},{"bufferView":0,"byteOffset":88348,"componentType":5123,"count":432,"type":"SCALAR","name":"accessorIndices"},{"bufferView":1,"byteOffset":1060128,"componentType":5126,"count":432,"max":[1.18710709,0.508,-9.168282E-18],"min":[1.16678715,-0.508,-0.0762],"type":"VEC3","name":"accessorPositions"},{"bufferView":1,"byteOffset":1065312,"componentType":5126,"count":432,"type":"VEC3","name":"accessorNormals"},{"bufferView":2,"byteOffset":244392,"componentType":5126,"count":432,"type":"VEC2","name":"accessorUVs"},{"bufferView":0,"byteOffset":89212,"componentType":5123,"count":36,"type":"SCALAR","name":"accessorIndices"},{"bufferView":1,"byteOffset":1070496,"componentType":5126,"count":36,"max":[1.18569994,0.0218095314,0.0],"min":[1.18468392,-6.602095E-14,-0.05842],"type":"VEC3","name":"accessorPositions"},{"bufferView":1,"byteOffset":1070928,"componentType":5126,"count":36,"type":"VEC3","name":"accessorNormals"},{"bufferView":2,"byteOffset":247848,"componentType":5126,"count":36,"type":"VEC2","name":"accessorUVs"},{"bufferView":0,"byteOffset":89284,"componentType":5123,"count":576,"type":"SCALAR","name":"accessorIndices"},{"bufferView":1,"byteOffset":1071360,"componentType":5126,"count":576,"max":[1.18569994,0.491708457,0.0],"min":[1.18468392,-0.491708457,-0.05842],"type":"VEC3","name":"accessorPositions"},{"bufferView":1,"byteOffset":1078272,"componentType":5126,"count":576,"type":"VEC3","name":"accessorNormals"},{"bufferView":2,"byteOffset":248136,"componentType":5126,"count":576,"type":"VEC2","name":"accessorUVs"},{"bufferView":0,"byteOffset":90436,"componentType":5123,"count":240,"type":"SCALAR","name":"accessorIndices"},{"bufferView":1,"byteOffset":1085184,"componentType":5126,"count":240,"max":[1.18430293,0.473235,-0.00603839243],"min":[1.18392193,-0.473235,-0.0523816571],"type":"VEC3","name":"accessorPositions"},{"bufferView":1,"byteOffset":1088064,"componentType":5126,"count":240,"type":"VEC3","name":"accessorNormals"},{"bufferView":2,"byteOffset":252744,"componentType":5126,"count":240,"type":"VEC2","name":"accessorUVs"},{"bufferView":0,"byteOffset":90916,"componentType":5123,"count":648,"type":"SCALAR","name":"accessorIndices"},{"bufferView":1,"byteOffset":1090944,"componentType":5126,"count":648,"max":[-1.18468392,0.491708457,1.43611848E-13],"min":[-1.18569994,-0.491708457,-0.05842],"type":"VEC3","name":"accessorPositions"},{"bufferView":1,"byteOffset":1098720,"componentType":5126,"count":648,"type":"VEC3","name":"accessorNormals"},{"bufferView":2,"byteOffset":254664,"componentType":5126,"count":648,"type":"VEC2","name":"accessorUVs"},{"bufferView":0,"byteOffset":92212,"componentType":5123,"count":150,"type":"SCALAR","name":"accessorIndices"},{"bufferView":1,"byteOffset":1106496,"componentType":5126,"count":150,"max":[-1.18392193,0.473235,-0.00603839243],"min":[-1.18430293,-0.473235,-0.0523816571],"type":"VEC3","name":"accessorPositions"},{"bufferView":1,"byteOffset":1108296,"componentType":5126,"count":150,"type":"VEC3","name":"accessorNormals"},{"bufferView":2,"byteOffset":259848,"componentType":5126,"count":150,"type":"VEC2","name":"accessorUVs"},{"bufferView":0,"byteOffset":92512,"componentType":5123,"count":6,"type":"SCALAR","name":"accessorIndices"},{"bufferView":1,"byteOffset":1110096,"componentType":5126,"count":6,"max":[1.21250713,-2.33772469,2.90679935E-07],"min":[-1.18710709,-2.33772469,-0.5212077],"type":"VEC3","name":"accessorPositions"},{"bufferView":1,"byteOffset":1110168,"componentType":5126,"count":6,"type":"VEC3","name":"accessorNormals"},{"bufferView":2,"byteOffset":261048,"componentType":5126,"count":6,"type":"VEC2","name":"accessorUVs"}],"bufferViews":[{"buffer":0,"byteLength":92524,"name":"bufferViewScalar"},{"buffer":0,"byteOffset":92524,"byteLength":1110240,"byteStride":12,"name":"bufferViewFloatVec3"},{"buffer":0,"byteOffset":1202764,"byteLength":261096,"byteStride":8,"name":"bufferViewFloatVec2"}],"buffers":[{"uri":"hall2-booth.bin","byteLength":1463860}],"materials":[{"pbrMetallicRoughness":{"baseColorFactor":[0.34902,0.34902,0.337255,1.0],"metallicFactor":0.06,"roughnessFactor":0.92},"name":"_Wall"},{"pbrMetallicRoughness":{"metallicFactor":0.0},"name":"Carpet"},{"pbrMetallicRoughness":{"baseColorTexture":{"index":0},"metallicFactor":0.0},"name":"M_Wall"},{"pbrMetallicRoughness":{"baseColorFactor":[0.643137,0.54902,0.415686,1.0],"metallicFactor":0.0},"name":"M_Wood"},{"pbrMetallicRoughness":{"baseColorFactor":[0.447059,0.447059,0.447059,1.0],"metallicFactor":0.0},"name":"M_Steel"},{"pbrMetallicRoughness":{"baseColorFactor":[0.478431,0.478431,0.478431,1.0],"metallicFactor":0.0},"name":"_Gray"},{"pbrMetallicRoughness":{"baseColorFactor":[0.247059,0.247059,0.247059,1.0],"metallicFactor":0.0},"name":"_C_Black.001"},{"pbrMetallicRoughness":{"baseColorFactor":[0.914,0.914,0.92,1.0],"metallicFactor":0.5,"roughnessFactor":0.29},"name":"20 - Polished Aluminum"},{"pbrMetallicRoughness":{"baseColorTexture":{"index":1},"metallicFactor":0.28,"roughnessFactor":0.74},"emissiveFactor":[0.06283186,0.06283185,0.0628318638],"doubleSided":true,"name":"Metal"},{"pbrMetallicRoughness":{"metallicFactor":0.0},"emissiveFactor":[0.09424778,0.09424777,0.0942477956],"name":"24 - Default"}],"textures":[{"sampler":0,"source":0,"name":"M_Wall.jpg"},{"sampler":0,"source":1,"name":"Fabric028_2K_Color.jpg"}],"images":[{"uri":"M_Wall.jpg"},{"uri":"Fabric028_2K_Color.jpg"}],"samplers":[{"magFilter":9729,"minFilter":9987}]}